<svg version="1.1" viewBox="0.0 0.0 247.08136482939634 242.3018372703412" fill="none" stroke="none" stroke-linecap="square" stroke-miterlimit="10" xmlns:xlink="http://www.w3.org/1999/xlink" xmlns="http://www.w3.org/2000/svg"><clipPath id="p.0"><path d="m0 0l247.08136 0l0 242.30183l-247.08136 0l0 -242.30183z" clip-rule="nonzero"/></clipPath><g clip-path="url(#p.0)"><path fill="#000000" fill-opacity="0.0" d="m0 0l247.08136 0l0 242.30183l-247.08136 0z" fill-rule="evenodd"/><path fill="#000000" d="m16.0 22.15251l0 0c0 -3.3981094 2.7547112 -6.1528206 6.1528206 -6.1528206l217.61562 0c1.6318359 0 3.1968231 0.64824104 4.350708 1.8021202c1.1538849 1.1538773 1.802124 2.718872 1.802124 4.3507004l0 213.23766c0 3.398117 -2.754715 6.152832 -6.152832 6.152832l-217.61562 0c-3.3981094 0 -6.1528206 -2.754715 -6.1528206 -6.152832z" fill-rule="evenodd"/><path fill="#ffffff" d="m0 6.15251l0 0c0 -3.3981092 2.7547119 -6.152821 6.1528215 -6.152821l217.61562 0c1.6318359 0 3.1968231 0.6482418 4.350708 1.8021196c1.1538849 1.153878 1.802124 2.7188723 1.802124 4.3507013l0 213.23766c0 3.398117 -2.754715 6.152832 -6.152832 6.152832l-217.61562 0c-3.3981097 0 -6.1528215 -2.754715 -6.1528215 -6.152832z" fill-rule="evenodd"/><path fill="#000000" d="m73.11024 15.296588l0 0c0 -1.722085 1.3960266 -3.1181107 3.1181107 -3.1181107l0 0l0 0c0.82697296 0 1.620079 0.32851505 2.204834 0.9132738c0.5847626 0.58475876 0.9132767 1.3778629 0.9132767 2.2048368l0 187.02362c0 1.7220917 -1.3960266 3.1181183 -3.1181107 3.1181183l0 0l0 0c-1.722084 0 -3.1181107 -1.3960266 -3.1181107 -3.1181183z" fill-rule="evenodd"/><path fill="#000000" d="m142.58005 15.068217l0 0c0 -1.5959587 1.2937927 -2.88974 2.88974 -2.88974l0.45674133 0l0 0c0.76641846 0 1.5014343 0.30445385 2.0433655 0.84638596c0.54193115 0.54193115 0.8463745 1.276948 0.8463745 2.043354l0 187.48036c0 1.5959625 -1.2937775 2.88974 -2.88974 2.88974l-0.45674133 0c-1.5959473 0 -2.88974 -1.2937775 -2.88974 -2.88974z" fill-rule="evenodd"/><path fill="#000000" d="m209.63525 140.23395l0 0c1.7220764 0 3.118103 1.3960266 3.118103 3.118103l0 0l0 0c0 0.8269806 -0.32850647 1.6200867 -0.91326904 2.2048492c-0.5847626 0.5847473 -1.3778687 0.91326904 -2.204834 0.91326904l-189.51181 0c-1.722086 0 -3.1181107 -1.3960266 -3.1181107 -3.1181183l0 0l0 0c0 -1.7220764 1.3960247 -3.118103 3.1181107 -3.118103z" fill-rule="evenodd"/><path fill="#000000" d="m209.63525 72.85862l0 0c1.7220764 0 3.118103 1.3960266 3.118103 3.1181107l0 0l0 0c0 0.82697296 -0.32850647 1.620079 -0.91326904 2.204834c-0.5847626 0.5847626 -1.3778687 0.9132767 -2.204834 0.9132767l-189.51181 0c-1.722086 0 -3.1181107 -1.3960266 -3.1181107 -3.1181107l0 0l0 0c0 -1.722084 1.3960247 -3.1181107 3.1181107 -3.1181107z" fill-rule="evenodd"/><path fill="#000000" fill-opacity="0.0" d="m99.72179 15.923884l0 189.51181" fill-rule="evenodd"/><path stroke="#000000" stroke-width="1.0" stroke-linejoin="round" stroke-linecap="butt" d="m99.72179 15.923884l0 189.51181" fill-rule="evenodd"/><path fill="#000000" fill-opacity="0.0" d="m121.4042 15.923884l0 189.51181" fill-rule="evenodd"/><path stroke="#000000" stroke-width="1.0" stroke-linejoin="round" stroke-linecap="butt" d="m121.4042 15.923884l0 189.51181" fill-rule="evenodd"/><path fill="#000000" fill-opacity="0.0" d="m191.71654 15.0l-0.31495667 190.4252" fill-rule="evenodd"/><path stroke="#000000" stroke-width="1.0" stroke-linejoin="round" stroke-linecap="butt" d="m191.71654 15.0l-0.31495667 190.4252" fill-rule="evenodd"/><path fill="#000000" fill-opacity="0.0" d="m169.9895 15.296588l0 189.51181" fill-rule="evenodd"/><path stroke="#000000" stroke-width="1.0" stroke-linejoin="round" stroke-linecap="butt" d="m169.9895 15.296588l0 189.51181" fill-rule="evenodd"/><path fill="#000000" fill-opacity="0.0" d="m34.46719 15.498688l0 189.35432" fill-rule="evenodd"/><path stroke="#000000" stroke-width="1.0" stroke-linejoin="round" stroke-linecap="butt" d="m34.46719 15.498688l0 189.35432" fill-rule="evenodd"/><path fill="#000000" fill-opacity="0.0" d="m55.45538 15.296588l0 189.51181" fill-rule="evenodd"/><path stroke="#000000" stroke-width="1.0" stroke-linejoin="round" stroke-linecap="butt" d="m55.45538 15.296588l0 189.51181" fill-rule="evenodd"/><path fill="#000000" fill-opacity="0.0" d="m211.71654 55.249344l-193.51181 0" fill-rule="evenodd"/><path stroke="#000000" stroke-width="1.0" stroke-linejoin="round" stroke-linecap="butt" d="m211.71654 55.249344l-193.51181 0" fill-rule="evenodd"/><path fill="#000000" fill-opacity="0.0" d="m210.54855 99.20735l-193.07086 -0.22047424" fill-rule="evenodd"/><path stroke="#000000" stroke-width="1.0" stroke-linejoin="round" stroke-linecap="butt" d="m210.54855 99.20735l-193.07086 -0.22047424" fill-rule="evenodd"/><path fill="#000000" fill-opacity="0.0" d="m209.9685 120.249344l-192.50394 0.03149414" fill-rule="evenodd"/><path stroke="#000000" stroke-width="1.0" stroke-linejoin="round" stroke-linecap="butt" d="m209.9685 120.249344l-192.50394 0.03149414" fill-rule="evenodd"/><path fill="#000000" fill-opacity="0.0" d="m210.43832 169.40945l-193.82678 0.31495667" fill-rule="evenodd"/><path stroke="#000000" stroke-width="1.0" stroke-linejoin="round" stroke-linecap="butt" d="m210.43832 169.40945l-193.82678 0.31495667" fill-rule="evenodd"/><path fill="#000000" fill-opacity="0.0" d="m210.43832 188.41208l-194.07874 0" fill-rule="evenodd"/><path stroke="#000000" stroke-width="1.0" stroke-linejoin="round" stroke-linecap="butt" d="m210.43832 188.41208l-194.07874 0" fill-rule="evenodd"/><path fill="#000000" fill-opacity="0.0" d="m209.85826 38.23622l-191.74802 -0.25196838" fill-rule="evenodd"/><path stroke="#000000" stroke-width="1.0" stroke-linejoin="round" stroke-linecap="butt" d="m209.85826 38.23622l-191.74802 -0.25196838" fill-rule="evenodd"/></g></svg>