<svg version="1.1" viewBox="0.0 0.0 149.0 148.501312335958" fill="none" stroke="none" stroke-linecap="square" stroke-miterlimit="10" xmlns:xlink="http://www.w3.org/1999/xlink" xmlns="http://www.w3.org/2000/svg"><clipPath id="p.0"><path d="m0 0l149.0 0l0 148.50131l-149.0 0l0 -148.50131z" clip-rule="nonzero"/></clipPath><g clip-path="url(#p.0)"><path fill="#000000" fill-opacity="0.0" d="m0 0l149.0 0l0 148.50131l-149.0 0z" fill-rule="evenodd"/><defs><linearGradient id="p.1" gradientUnits="userSpaceOnUse" gradientTransform="matrix(14.44421917560758 0.0 0.0 14.44421917560758 0.0 0.0)" spreadMethod="pad" x1="5.1578284658577225" y1="-5.073084469335767" x2="-5.055832936850066" y2="5.140464783682345"><stop offset="0.0" stop-color="#0a85ff"/><stop offset="1.0" stop-color="#083b6e"/></linearGradient></defs><path fill="url(#p.1)" d="m0.7677165 20.439934l0 0c0 -11.037079 8.94732 -19.9844 19.984398 -19.9844l107.495766 0c5.3002014 0 10.383301 2.105493 14.1311035 5.853295c3.7478027 3.7478013 5.853302 8.830912 5.853302 14.1311035l0 107.62176c0 11.037079 -8.947327 19.98439 -19.984406 19.98439l-107.495766 0l0 0c-11.037079 0 -19.984398 -8.947311 -19.984398 -19.98439z" fill-rule="evenodd"/><path fill="#000000" fill-opacity="0.0" d="m-10.115485 -0.080052495l161.22833 0l0 148.6614l-161.22833 0z" fill-rule="evenodd"/><path fill="#ffffff" d="m57.530457 91.99181q-0.890625 4.328125 -3.078125 8.0625q-2.1875 3.71875 -5.46875 6.453125q-3.28125 2.734375 -7.6875 4.296875q-4.390625 1.5625 -9.90625 1.5625q-2.609375 0 -5.109375 -0.46875q-2.5 -0.46875 -4.734375 -1.328125q-2.234375 -0.859375 -4.171875 -2.109375q-1.921874 -1.25 -3.374999 -2.8125l7.124999 -9.0625q0.9375 0.984375 2.078125 1.90625q1.15625 0.90625 2.53125 1.609375q1.390625 0.703125 3.0 1.125q1.609375 0.40625 3.59375 0.40625q1.71875 0 3.671875 -0.640625q1.953125 -0.65625 3.765625 -2.140625q1.828125 -1.484375 3.203125 -3.953125q1.390625 -2.484375 2.171875 -6.1875l7.03125 -34.89062l-24.640625 0l2.140625 -10.5625l37.546875 0l-9.6875 48.73437zm54.99948 -38.062496l-11.40625 57.39062l-13.125 0l11.40625 -57.39062l-18.640625 0l2.234375 -10.671875l50.40625 0l-2.234375 10.671875l-18.640625 0z" fill-rule="nonzero"/></g></svg>